<?xml version="1.0" standalone="no"?>
<!DOCTYPE svg PUBLIC "-//W3C//DTD SVG 20010904//EN"
 "http://www.w3.org/TR/2001/REC-SVG-20010904/DTD/svg10.dtd">
<svg version="1.0" xmlns="http://www.w3.org/2000/svg"
 width="700.000000pt" height="700.000000pt" viewBox="0 0 700.000000 700.000000"
 preserveAspectRatio="xMidYMid meet">
<metadata>
Created by potrace 1.11, written by Peter Selinger 2001-2013
</metadata>
<g transform="translate(0.000000,700.000000) scale(0.100000,-0.100000)"
fill="#000000" stroke="none">
<path d="M3355 6146 c-226 -51 -420 -222 -500 -443 -119 -326 39 -709 353
-852 28 -14 52 -27 52 -29 0 -6 -10 -18 -242 -293 -217 -258 -418 -498 -438
-523 -8 -10 -20 -23 -25 -30 -9 -10 -171 -202 -429 -509 -54 -64 -103 -117
-109 -117 -6 0 -66 20 -134 45 -160 58 -332 120 -513 185 -162 57 -203 72
-208 76 -2 1 23 34 55 72 134 160 187 341 158 543 -29 207 -161 397 -350 504
-178 100 -408 113 -598 33 -266 -111 -435 -377 -423 -665 4 -106 18 -165 61
-258 78 -171 221 -299 406 -365 l57 -21 1 -947 c0 -521 2 -981 4 -1022 4 -87
24 -134 85 -196 118 -120 395 -239 692 -299 3 0 28 -6 55 -13 28 -6 61 -14 75
-16 14 -3 48 -9 76 -15 59 -12 365 -57 444 -66 30 -3 71 -8 90 -10 19 -2 58
-6 85 -9 28 -3 73 -8 100 -11 75 -8 169 -15 280 -20 55 -3 123 -8 150 -10 53
-4 281 -14 455 -21 128 -4 616 -4 760 0 111 4 391 17 450 21 19 1 89 5 155 9
66 4 136 9 155 11 19 2 71 7 115 11 94 7 110 9 190 18 33 4 78 9 100 12 89 9
139 16 159 20 12 2 39 7 61 9 39 5 185 30 235 40 14 3 41 8 60 11 87 15 334
79 421 109 256 88 406 188 464 311 20 43 24 67 25 150 0 54 1 509 1 1011 l0
912 57 20 c270 97 449 327 469 601 24 344 -200 645 -539 725 -96 23 -273 14
-363 -18 -132 -46 -240 -121 -321 -222 -57 -70 -88 -127 -120 -220 -25 -72
-28 -93 -28 -210 1 -71 3 -137 6 -145 2 -8 10 -34 17 -57 25 -90 110 -234 170
-287 27 -24 27 -33 -1 -41 -13 -4 -70 -24 -128 -45 -58 -21 -208 -75 -335
-120 -126 -45 -259 -92 -295 -106 -36 -13 -71 -24 -77 -24 -6 0 -55 53 -110
118 -54 64 -100 119 -103 122 -3 3 -50 59 -105 125 -55 66 -102 122 -105 125
-5 5 -91 107 -121 145 -19 23 -91 108 -123 145 -12 14 -80 95 -151 180 -72 85
-132 157 -135 160 -3 3 -27 32 -55 65 -27 33 -60 71 -71 85 -88 103 -164 195
-164 200 0 3 21 14 48 25 126 52 265 185 330 317 24 46 44 93 46 104 2 10 9
39 16 63 19 72 15 225 -9 314 -66 249 -266 444 -512 499 -84 19 -227 21 -304
4z m255 -338 c50 -15 131 -69 164 -109 133 -157 101 -402 -68 -518 -241 -166
-562 11 -552 304 8 230 235 391 456 323z m-9 -1350 c51 -62 96 -115 99 -118 3
-3 39 -45 80 -95 41 -49 77 -92 80 -95 3 -3 27 -32 55 -65 27 -33 54 -65 60
-71 5 -7 17 -20 25 -30 23 -28 224 -268 230 -274 3 -3 27 -32 55 -65 27 -33
52 -62 55 -65 3 -3 25 -30 50 -60 25 -30 54 -65 65 -78 11 -13 94 -112 185
-220 91 -107 177 -204 192 -215 55 -41 106 -35 303 36 99 36 277 99 395 141
118 42 231 83 250 91 68 27 325 117 340 119 13 1 15 -94 15 -747 0 -412 -3
-751 -6 -753 -4 -2 -35 8 -70 22 -105 43 -322 104 -459 130 -13 3 -54 11 -91
19 -37 8 -116 22 -176 30 -59 9 -119 18 -133 20 -58 11 -291 37 -445 50 -38 3
-81 8 -95 10 -14 2 -81 7 -150 11 -69 3 -141 8 -160 10 -33 3 -196 10 -430 19
-142 6 -707 6 -850 0 -180 -7 -371 -16 -420 -20 -25 -1 -94 -6 -155 -10 -60
-3 -121 -8 -135 -10 -14 -2 -61 -7 -105 -10 -44 -4 -91 -8 -105 -10 -127 -12
-169 -17 -190 -20 -14 -2 -47 -6 -75 -10 -90 -10 -129 -16 -185 -25 -56 -10
-95 -16 -152 -25 -197 -32 -449 -97 -612 -159 -37 -14 -69 -26 -70 -26 0 0 -1
340 -1 755 0 415 2 755 5 755 6 0 366 -128 395 -140 11 -5 61 -23 110 -40 50
-17 108 -38 130 -47 22 -8 60 -21 85 -29 25 -8 54 -19 65 -24 82 -37 392 -140
421 -140 68 0 95 19 194 136 34 39 130 153 157 184 11 14 47 57 80 96 66 81
471 563 487 580 6 7 121 143 255 303 134 160 247 291 251 291 4 0 49 -51 101
-112z m-2809 51 c101 -27 200 -121 234 -223 88 -261 -143 -520 -409 -459 -74
17 -109 35 -163 85 -148 136 -153 364 -10 508 91 93 217 125 348 89z m5643
-10 c171 -64 264 -253 211 -430 -38 -131 -155 -231 -290 -248 -233 -30 -432
173 -394 404 35 223 261 354 473 274z m-2415 -2623 c227 -8 317 -13 420 -21
41 -3 104 -8 140 -10 70 -6 164 -14 220 -20 19 -2 64 -7 100 -10 36 -4 76 -8
90 -10 14 -2 50 -7 80 -10 30 -4 62 -9 70 -10 8 -1 40 -6 70 -10 100 -12 418
-75 538 -106 137 -36 295 -93 336 -122 l29 -20 -34 -18 c-117 -63 -387 -141
-634 -184 -16 -3 -37 -8 -45 -10 -8 -2 -79 -14 -156 -25 -78 -11 -150 -22
-160 -24 -16 -3 -86 -11 -184 -21 -14 -2 -47 -6 -75 -9 -77 -8 -169 -17 -233
-21 -31 -2 -97 -7 -147 -11 -540 -40 -1608 -35 -2005 11 -19 3 -73 7 -120 10
-47 3 -98 8 -115 9 -16 2 -61 7 -100 11 -38 4 -76 8 -85 10 -8 2 -44 6 -80 10
-36 3 -72 8 -80 10 -8 3 -35 7 -60 10 -93 11 -450 79 -505 96 -16 5 -75 22
-131 38 -114 33 -247 86 -263 105 -9 10 4 20 57 44 111 51 164 68 366 118 114
28 324 68 466 89 99 15 198 27 315 40 33 3 74 8 90 10 17 2 68 6 115 10 47 4
101 9 120 10 19 2 85 7 145 10 61 4 128 9 150 10 22 2 148 7 280 11 132 3 241
7 242 8 5 4 605 -2 773 -8z"/>
</g>
</svg>
