<svg xmlns="http://www.w3.org/2000/svg" viewBox="0 0 512 512" width="512" height="512"><path d="M377.86 217.17l-31.83-31.83 25.6-25.6c5.87-5.87 5.87-15.37 0-21.23s-15.35-5.84-21.2 0l-25.62 25.63L293 132.3c-5.86-5.86-15.36-5.86-21.22 0s-5.85 15.36 0 21.22l31.83 31.82-21.23 21.22-31.82-31.83c-5.86-5.85-15.36-5.85-21.22 0s-5.86 15.36 0 21.22l31.82 31.83-31.9 31.9-31.83-31.82c-5.86-5.86-15.36-5.86-21.22 0-5.86 5.86-5.86 15.36 0 21.2l31.83 31.84-21.22 21.22L155 270.3c-5.86-5.87-15.36-5.87-21.22 0-5.86 5.85-5.86 15.35 0 21.2l31.83 31.84-25.62 25.6c-5.86 5.87-5.86 15.37 0 21.23 5.86 5.86 15.36 5.86 21.22 0l25.6-25.6 31.84 31.8c5.86 5.87 15.36 5.87 21.2 0 5.87-5.85 5.87-15.35 0-21.2l-31.8-31.83 21.2-21.22 31.83 31.83c5.86 5.86 15.36 5.86 21.22 0s5.85-15.36 0-21.22l-31.84-31.83 31.9-31.9 31.84 31.82c5.86 5.86 15.36 5.86 21.22 0s5.86-15.35 0-21.2l-31.83-31.84 21.2-21.22 31.84 31.83c5.86 5.85 15.36 5.85 21.22 0 5.86-5.87 5.86-15.37 0-21.23z"/><path d="M488.2 23.75C453.97-10.5 368.35-.8 319.87 10.83c-2.2.52-4.4 1.06-6.6 1.62-33.15 8.45-66.37 20.95-96.8 36.5-39.24 20-73.66 44.7-102.32 73.36-62.73 62.73-90.6 136.05-102.88 184.6l-2.02 8.4c-11.9 51.58-17.77 135.57 17.02 170.37 35.82 35.8 123.02 28.22 172.07 16.63 48.32-11.34 125.6-38.82 191.3-104.5 28.72-28.74 53.46-63.18 73.5-102.38 16.54-32.3 29.63-67.74 38.07-102.88 11.33-46.9 21.76-134.04-13-168.8zM47.14 464.8c-14.54-14.54-23.37-59.72-13.7-119.63L166.8 478.5c-59.92 9.67-105.1.83-119.64-13.7zm321.63-87.87c-55.97 55.97-121.25 81.95-166.2 93.9L41.1 309.4C53.07 264.4 79.05 199.13 135 143.16c46.12-46.1 111.22-82.3 180.67-100.85l154.1 154.1c-18.56 69.28-54.8 134.3-101 180.5zm108.9-216.06L351.23 34.47c19.73-3.43 37.7-4.95 53.37-4.95 31.47 0 53.75 6.1 62.74 15.1 13.56 13.55 20.63 56.92 10.32 116.25z"/></svg>
